<?xml version="1.0" encoding="utf-8"?>
<!-- Generator: Adobe Illustrator 21.0.0, SVG Export Plug-In . SVG Version: 6.00 Build 0)  -->
<svg version="1.1" xmlns="http://www.w3.org/2000/svg" xmlns:xlink="http://www.w3.org/1999/xlink" x="0px" y="0px"
	 viewBox="0 0 362.4 319.1" style="enable-background:new 0 0 362.4 319.1;" xml:space="preserve">
<style type="text/css">
	.st0{fill:#A37B34;stroke:#A37B34;stroke-miterlimit:10;}
	.st1{fill:#FFFFFF;}
	.st2{fill:#AC2229;stroke:#AC2229;stroke-miterlimit:10;}
	.st3{clip-path:url(#SVGID_3_);fill:#FFFFFF;}
	.st4{clip-path:url(#SVGID_4_);fill:#FFFFFF;}
</style>
<g id="Livello_1">
	<path d="M331.2,115.7c-0.2,0-0.5,0-0.7,0.1c-2.6,0.7-7.6,6.1-10.6,17.8v0.1l-1.2,17.3l-1.1,15.3c0,0.3,0.1,0.5,0.4,0.6
		c0.1,0,0.2,0.1,0.2,0.1c0.2,0,0.3-0.1,0.4-0.2l12.8-14.3c0.1-0.1,0.1-0.2,0.2-0.4l2.6-32.3v-0.1
		C334.2,119.5,333.7,115.7,331.2,115.7 M322.7,128.5l-1.4,20c0,0-0.1,0-0.1,0.1l-1.2,1.1l1.1-15.7
		C321.6,131.9,322.1,130.1,322.7,128.5 M319.9,151.3l2.1-1.9c0.1-0.1,0.1-0.2,0.2-0.3l8.3,2.7L319,164.6L319.9,151.3z"/>
	<path d="M327.7,161.8c-0.3,0-0.7,0.1-1,0.2c-2.9,1-9,10.8-9.8,17.2l-2.3,30.6c0,0.3,0.1,0.5,0.4,0.6c0.1,0,0.2,0,0.2,0
		c0.2,0,0.3-0.1,0.5-0.2l12.4-14.9c0.1-0.1,0.1-0.2,0.1-0.3l2.4-29.7v-0.1C330.6,164.9,330.1,161.8,327.7,161.8 M319.3,174.7
		l-1,15.8l-1.2,1.4l0.9-12.6C318.2,177.9,318.7,176.3,319.3,174.7 M317,193.9l1.9-2.2l8.1,2.9l-11.1,13.3L317,193.9z"/>
	<path d="M39.4,155c0.7,0,1.3-0.2,1.8-0.5c1.4-0.8,2.1-2.3,2.1-4.3c0-1.9-0.8-4.1-2.1-6.4c-2.2-3.8-5.4-6.3-8.1-6.3
		c-0.7,0-1.3,0.2-1.8,0.5c-2.7,1.6-2.7,5.9,0,10.7C33.5,152.5,36.8,155,39.4,155 M32,139.1c0.4-0.2,0.8-0.3,1.2-0.3
		c2.2,0,5.1,2.3,7,5.7c1.2,2.1,1.9,4.1,1.9,5.8c0,1.1-0.2,2.5-1.5,3.2c-0.4,0.2-0.8,0.3-1.2,0.3c-2.2,0-5.1-2.3-7-5.7
		C30,144,29.9,140.3,32,139.1"/>
	<path d="M361.8,136.4l0.6-5.6l0,0c0-0.1,0-0.1,0-0.2l0,0c0-0.1,0-0.1-0.1-0.2l0,0l-0.1-0.1l0,0l0,0c-0.1,0-0.1-0.1-0.2-0.1l0,0
		l-9.4-2.5c-0.2-0.1-0.5,0-0.6,0.2l-2.6,2.9l-4.5-1.4l2.1-22.7l0,0v-0.1v-0.1v-0.1c0,0,0-0.1-0.1-0.1l0,0l0,0l-0.1-0.1
		c0,0,0,0-0.1,0l0,0l-5.5-1.6l0.3-4l0,0v-0.1v-0.1v-0.1c0,0,0-0.1-0.1-0.1l0,0l0,0l-0.1-0.1h-0.1l0,0l-10.1-2.9
		c-0.2-0.1-0.4,0-0.6,0.2l-21.2,21.2l-84.6-26.4L223.8,63l0.3-0.2l0,0c0,0,0.1,0,0.1-0.1l0,0c0,0,0,0,0-0.1l0,0v-0.1l0,0v-0.1l0,0
		l0,0v-0.5l0,0v-0.1l0,0c0,0,0,0,0-0.1l0,0l0,0c0,0,0,0-0.1-0.1l0,0l-8.4-8l-5.6-9.8l-2.7-4.8c0,0,0-0.1-0.1-0.1l-0.2-0.4
		c0-0.1-0.1-0.1-0.2-0.2l-13.2-9.7c-0.1-0.1-0.3-0.1-0.5-0.1l-12.6,2.6c-0.1,0-0.1,0-0.2,0.1l-12.8,7.9l-2.2-0.6
		c-0.2,0-0.3,0-0.5,0.1l-1.4,0.9c-0.2,0.1-0.3,0.3-0.3,0.6l0.1,0.7l-0.1,0.1l-1.3-18l0,0c0-0.1,0-0.1,0-0.2l0,0l-3.8-8.8
		c-0.1-0.2-0.3-0.4-0.6-0.4s-0.5,0.2-0.5,0.4l-2.2,8.4l-0.5-0.6l-11-16.1c-0.2-0.8-1.1-4.5-1.2-5C142,0.2,141.7,0,141.3,0
		s-0.7,0.3-0.8,0.4s-0.2,0.3-0.2,0.4l-0.4,5l-8.6,18.7l-3.6-7.6c-0.1-0.2-0.4-0.4-0.6-0.3c-0.3,0-0.5,0.2-0.5,0.5l-2.3,9.5l0,0
		c0,0,0,0,0,0.1v0.1v0.1l2.5,24.8c-0.1,0-0.3,0-0.4,0c-0.2,0-0.4,0-0.6,0c0-1.5-0.4-2.6-1.1-3.4c-0.5-0.5-1.1-0.8-1.5-0.9l-0.1-0.9
		c0-0.2-0.1-0.4-0.3-0.5c-0.3-0.2-0.6-0.2-0.9-0.2c-0.9,0-1.2,0.6-1.3,0.7c-0.1,0.1-0.1,0.2-0.1,0.3v0.8c-0.5,0.2-0.9,0.5-1.1,0.9
		c-0.8,1.1-0.7,2.8-0.6,3.7c-11.9,3.3-16.2,10.7-17.8,16.5c-1.3,4.8-1,9-0.8,10.9l-1.1-0.4c-0.2-0.1-0.4,0-0.5,0.1l-1.7,1l0,0
		c-0.1,0.1-0.1,0.1-0.2,0.2l0,0c0,0,0,0,0,0.1l0,0l0,0v0.1l0,0l0,0v0.8l-1,1.8l-11.3,7L82,89.7c-0.2-0.1-0.4,0-0.5,0.1l-1.8,1.1l0,0
		L79.6,91l0,0l-0.1,0.1l0,0l0,0v0.1l0,0c0,0.1,0,0.1,0,0.2l0,0l0.1,0.8L78.7,94l-12.1,7.5l-2.3-0.8c-0.2-0.1-0.4,0-0.5,0.1l-2,1.2
		l0,0l-0.1,0.1l0,0l-0.1,0.1l0,0l0,0v0.1l0,0c0,0.1,0,0.1,0,0.2l0,0l0.1,0.8l-0.9,1.8l-13.1,8.1l-2.4-0.9c-0.2-0.1-0.4-0.1-0.5,0.1
		l-2.1,1.3l0,0l-0.1,0.1l0,0l-0.1,0.1l0,0l0,0v0.1l0,0v0.1l0,0l0.1,0.8l-0.9,1.8l-2.1,1.4c-1.4-2.4-7-11.8-7.4-12.5
		c-0.2-0.4-0.5-3-0.7-5.3l0.7-0.7c0.1-0.1,0.2-0.3,0.2-0.5l-0.6-3.2c0-0.1-0.1-0.3-0.2-0.4L30.9,95c-0.2-0.1-0.5-0.2-0.7,0l-1.3,0.7
		l-0.4-0.6c-0.1-0.1-0.2-0.2-0.4-0.3c-0.2,0-0.3,0-0.5,0.1l-3,1.8c-0.2,0.1-0.3,0.3-0.3,0.5c0,0.1,0,1.7,1.1,3.3
		c0.7,1,1.2,4.6,1.4,6.8l-3.5,9l-1.5-6.9c0-0.2-0.2-0.4-0.4-0.4l-2.6-1c-0.2-0.1-0.4,0-0.5,0l-3,1.8l0,0l-0.1,0.1l0,0l-0.1,0.1l0,0
		l0,0v0.1l0,0c0,0.1,0,0.1,0,0.2l0,0l1,4.9c-0.1,0-0.1,0.1-0.1,0.1l0,0l0,0l-0.1,0.1l0,0l-0.1,0.1l0,0v0.1l0,0c0,0,0,0.1,0,0.2v0.1
		l0.4,1.8l-0.4-0.3c-0.1-0.1-0.3-0.2-0.5-0.1l-2,0.3l-0.3-1.5c0-0.2-0.2-0.4-0.4-0.4l-1-0.4l-0.9-4.1c0-0.1,0-0.1-0.1-0.2l-2.9-4.6
		c-0.1-0.2-0.4-0.3-0.6-0.3c-0.3,0.1-0.4,0.3-0.5,0.5l-0.7,5.5c0,0.1,0,0.1,0,0.2l0.8,3.8L6,117.5c-0.1,0.1-0.1,0.3-0.1,0.4l0.2,0.7
		H5.8c-0.1,0-0.3,0.1-0.4,0.2l-5.3,5.7C0,124.8,0,125,0,125.2l12.7,57l-8.1,5.6c-0.2,0.1-0.3,0.4-0.3,0.6l0.2,0.6
		c0,0.2,0.2,0.3,0.3,0.4l72.4,33.4c0.2,0.1,0.5,0.1,0.6-0.1l61.5-49.7l14.2,5.6c0.2,0.1,0.4,0,0.6-0.1l22.4-18.8l7.6,2.9l0,0h0.1
		l0,0h0.1l0,0l0,0h0.1l0,0c0,0,0.1,0,0.1-0.1l0,0l11.8-10.1l2.8-2.4l4,1.5c0.2,0.1,0.4,0,0.6-0.1l7.9-6.8l13.8,4.9l0.2,9.8
		c0,0.3,0.2,0.5,0.4,0.6l7.6,2.8c0.2,0.1,0.5,0,0.6-0.1l7.6-7.1l15.4,5.5l-0.1,9.9c0,0.3,0.2,0.5,0.4,0.6l33.5,12.1v1l-2.8,60.9
		c0,0.3,0.1,0.5,0.4,0.6l9.6,3.9l0,0c0,0,0,0,0.1,0c0,0,0,0,0.1,0l0,0l0,0h0.1l0,0h0.1l0,0c0,0,0,0,0.1,0l0,0c0,0,0,0,0.1-0.1l0,0
		l58.3-73.7l0.1-0.1l0,0V176l0,0l0.6-5.6l0,0l1.2-11.2l0,0L361.8,136.4L361.8,136.4 M360,141.6l-3.5,4.2c-0.2,0.3-0.2,0.6,0.1,0.9
		c0.1,0.1,0.3,0.1,0.4,0.1c0.2,0,0.3-0.1,0.5-0.2l2.4-2.8l-0.4,3.4l-3.5,4.2c-0.2,0.3-0.2,0.6,0.1,0.9c0.1,0.1,0.2,0.1,0.4,0.1
		c0.2,0,0.3-0.1,0.5-0.2l2.3-2.8l-0.4,3.4l-3.4,4.1c-0.2,0.3-0.2,0.6,0.1,0.9c0.1,0.1,0.2,0.1,0.4,0.1c0.2,0,0.4-0.1,0.5-0.2
		l2.2-2.7l-0.4,3.4l-3.4,4.1c-0.2,0.3-0.2,0.6,0.1,0.9c0.1,0.1,0.2,0.1,0.4,0.1c0.2,0,0.3-0.1,0.5-0.2l2.2-2.7l-0.4,3.4l-3.3,4.1
		c-0.2,0.3-0.2,0.6,0.1,0.8c0.1,0.1,0.2,0.1,0.4,0.1c0.2,0,0.3-0.1,0.5-0.2l2.1-2.6l-0.4,3.4l-3.3,4.1c-0.2,0.3-0.2,0.6,0.1,0.9
		c0.1,0.1,0.2,0.1,0.4,0.1c0.2,0,0.4-0.1,0.5-0.2l2.1-2.6l-0.4,3.4l-1.3,1.6l-55.7,70.4l5.3-96.7l7.6-8.5c0.1-0.1,0.1-0.2,0.1-0.3
		c0,0,0,0,0.1,0l0,0c0,0,0.1,0,0.1-0.1l0,0l0.1-0.1l0,0c0,0,0.1-0.1,0.1-0.2l0,0l0,0c0,0,0,0,0-0.1c0,0,0,0,0-0.1l0,0l0.8-12.1
		l21.3-21.9l0,0l4.6-4.8l-0.3,4.6l-3.9,4.1c-0.2,0.2-0.2,0.6,0,0.9c0.1,0.1,0.3,0.2,0.4,0.2c0.2,0,0.3-0.1,0.4-0.2l2.9-3.1l-0.3,4.6
		c-0.1,0-0.1,0.1-0.2,0.2l-2,2.3c-0.2,0.3-0.2,0.6,0.1,0.9c0.1,0.1,0.3,0.1,0.4,0.1c0.2,0,0.3-0.1,0.5-0.2l2-2.3
		c0-0.1,0.1-0.1,0.1-0.2l0,0l0,0c0,0,0,0,0.1,0l0,0c0,0,0,0,0.1,0l0,0l5.5-5.8l-0.4,3.9l-5.2,5.5c-0.2,0.2-0.2,0.6,0,0.9
		c0.1,0.1,0.3,0.2,0.4,0.2c0.2,0,0.3-0.1,0.4-0.2l4.1-4.4l-0.4,3.9l-4.7,5.1c-0.2,0.2-0.2,0.6,0,0.9c0.1,0.1,0.3,0.2,0.4,0.2
		c0.2,0,0.3-0.1,0.4-0.2l3.7-4l-0.4,3.9l-4.3,4.7c-0.2,0.2-0.2,0.6,0,0.9c0.1,0.1,0.3,0.2,0.4,0.2c0.2,0,0.3-0.1,0.4-0.2l3.2-3.5
		l-0.3,3.8v0.1l-3.8,4.2c-0.2,0.2-0.2,0.6,0,0.9c0.1,0.1,0.3,0.2,0.4,0.2c0.2,0,0.3-0.1,0.4-0.2l2.7-3l-0.4,3.9L339,140
		c-0.2,0.2-0.2,0.6,0,0.9c0.1,0.1,0.3,0.2,0.4,0.2c0.2,0,0.3-0.1,0.5-0.2l2.3-2.6l-0.4,3.9l-2.9,3.3c-0.2,0.3-0.2,0.6,0.1,0.9
		c0.1,0.1,0.3,0.1,0.4,0.1c0.2,0,0.3-0.1,0.5-0.2l1.8-2.1l-0.3,3.8l-2.4,2.9c-0.2,0.3-0.2,0.6,0.1,0.9c0.1,0.1,0.2,0.1,0.4,0.1
		c0.2,0,0.3-0.1,0.5-0.2l1.3-1.6l-0.3,3.8l-2,2.4c-0.2,0.3-0.2,0.6,0.1,0.9c0.1,0.1,0.2,0.1,0.4,0.1c0.2,0,0.4-0.1,0.5-0.2l2.1-2.6
		l18.4-21.5l-0.4,3.5l-3.6,4.2c-0.2,0.3-0.2,0.6,0.1,0.9c0.1,0.1,0.3,0.1,0.4,0.1c0.2,0,0.3-0.1,0.5-0.2l2.4-2.8L360,141.6z
		 M296.9,142.3l-99-32.9L183,87.8l119,38.9l-0.6,10.9l0,0v0.1c0,0,0,0,0,0.1c0,0,0,0,0,0.1c0,0,0,0,0,0.1l0,0l0,0L296.9,142.3
		L296.9,142.3 M9.4,185.9l67.1,31c0.1,0,0.2,0.1,0.3,0.1c0.1,0,0.3,0,0.4-0.1l61.5-47.9l14.1,5.6c0.2,0.1,0.4,0,0.6-0.1l20.3-16.8
		l0.4,0.3l-20.9,17.4l-14.1-5.6c-0.2-0.1-0.4,0-0.6,0.1L77,218.6L8.3,186.7L9.4,185.9z M176.9,158.4l-5-3.6l0,0v-0.1l0,0l-1.9-28
		l0,0l-0.6-8.4l12.1,4.2l2.2,38.8l-6.5-2.5C177.1,158.6,177,158.5,176.9,158.4 M152.8,169.1l-3.2-36.5l14.8-11.1l3.8-2.8l0.2,3.2
		l-4.4,3.3c-0.3,0.2-0.3,0.6-0.1,0.8c0.1,0.2,0.3,0.2,0.5,0.2c0.1,0,0.3,0,0.4-0.1l3.8-2.9l0.2,3.2l-4.4,3.4
		c-0.3,0.2-0.3,0.6-0.1,0.8c0.1,0.2,0.3,0.2,0.5,0.2c0.1,0,0.3,0,0.4-0.1l3.7-2.9l0.2,3.2l-4.4,3.4c-0.3,0.2-0.3,0.6-0.1,0.8
		c0.1,0.2,0.3,0.2,0.5,0.2c0.1,0,0.3,0,0.4-0.1l3.7-2.9l0.2,3.2L165,139c-0.3,0.2-0.3,0.6-0.1,0.8c0.1,0.1,0.3,0.2,0.5,0.2
		c0.1,0,0.3,0,0.4-0.1l3.7-2.9l0.2,3.2l-4.3,3.5c-0.3,0.2-0.3,0.6-0.1,0.9c0.1,0.1,0.3,0.2,0.5,0.2c0.1,0,0.3,0,0.4-0.1l3.7-2.9
		l0.2,3.2l-4.3,3.5c-0.3,0.2-0.3,0.6-0.1,0.8c0.1,0.2,0.3,0.2,0.5,0.2c0.1,0,0.3,0,0.4-0.1l3.7-3l0.2,3.2l-4.3,3.5
		c-0.3,0.2-0.3,0.6-0.1,0.9c0.1,0.1,0.3,0.2,0.5,0.2c0.1,0,0.3,0,0.4-0.1l3.7-3l0.2,3.2l-0.9,0.6L152.8,169.1z M142.1,165.6
		l-0.6-6.5l3.2,1.2l0.6,6.5L142.1,165.6z M146.5,167.3l-0.7-7.5c0-0.2-0.2-0.4-0.4-0.5l-4.5-1.7c-0.2-0.1-0.4,0-0.6,0.1
		c-0.2,0.1-0.3,0.3-0.2,0.5l0.7,6.9l-3.7-1.4l-3.6-35.5l0.8-0.6l14.2,5.1l3.2,36.6L146.5,167.3z M55.6,201.4l-4.7-21.8
		c-0.2-0.8-0.4-3.2,0.7-4.1c0.6-0.5,1.5-0.6,2.7-0.2c0.7,0.2,1.5,0.5,2.1,1c-4.9-1.5-3.7,3.8-3.7,3.8l4.6,21.5c-0.1,0-0.3,0-0.4,0.1
		l-0.3,0.2L55.6,201.4z M67.8,207c-0.4-2.6-3-19.4-3.4-21.6c-0.6-2.7-4.2-9.7-9.8-11.3c-1.7-0.5-3-0.3-3.9,0.5
		c-1.8,1.6-1.1,5.1-1,5.3l4.7,21.7l-0.2,0.1l-1.1-0.5l-0.1-0.7c0-0.2-0.2-0.4-0.3-0.4l-0.4-0.2v-0.2h0.1c0.3-0.1,0.5-0.4,0.5-0.7
		c0-0.2-3.9-19.9-4.4-22.2c-0.6-2.7-5.2-8.9-10.7-10.5c-1.7-0.5-3-0.3-3.9,0.5c-1.8,1.6-1.1,5.1-1,5.3l4.7,21.9l-0.1,0.1l-1.2-0.5
		l-0.1-0.7c0-0.1-0.1-0.2-0.1-0.2c0-0.1,0-0.2,0-0.2c0-0.2-3.9-19.2-4.4-21.5c-0.6-2.7-4.2-9.7-9.8-11.3c-1.7-0.5-3-0.3-3.9,0.5
		c-1.8,1.6-1.1,5.1-1,5.3l4.6,21.5l-3.6-1.6c-0.2-0.1-0.3-0.1-0.5,0L4.3,126.5l5.2,2.1l4.6,21.6c0,0.2,0.2,0.4,0.4,0.4l46.6,19.7
		c0.2,0.1,0.4,0.1,0.6-0.1c0.2-0.1,0.3-0.4,0.2-0.6l-2.8-16l0,0l-0.9-5.3l4.2,1.7c-0.1,0.1-0.1,0.3-0.1,0.4L72.4,210l-3.8-1.7
		l-0.1-0.7c0-0.2-0.2-0.4-0.3-0.4L67.8,207z M38.5,193.7l-4.7-21.9c-0.2-0.8-0.4-3.2,0.7-4.1c0.6-0.5,1.5-0.6,2.7-0.2
		c0.9,0.3,1.7,0.6,2.5,1.1c-5.3-2-4.1,3.7-4.1,3.7l4.6,21.7c-0.1,0-0.2,0-0.3,0.1l-0.3,0.2L38.5,193.7z M22.6,186.8L22.6,186.8
		L17.9,165c-0.2-0.8-0.4-3.2,0.7-4.1c0.6-0.5,1.5-0.6,2.7-0.2c0.7,0.2,1.5,0.6,2.1,1c-4.9-1.5-3.7,3.8-3.7,3.8l4.7,21.8l-1.2-0.5
		C23,186.7,22.7,186.7,22.6,186.8 M17.7,111.8l0.9,4.4l-1.2-0.5l-0.9-4.4L17.7,111.8z M22.5,118.3l-1.4,3.3l-0.9-4.2
		c0.4-0.2,1.1-0.7,1.8-1.1L22.5,118.3z M127.7,51.3c0-0.1,0-0.1,0-0.2l-1-10.4l-1.3-13.3l2.3,0.6l8.6,87.6l-2-0.7l-3.4-32
		c0-0.1,0-0.1,0-0.2v-0.1L127.7,51.3z M130.9,26.7c0.9,1.1,3.7,3.6,10,3.7l-0.2,0.8l0,0c0,0,0,0,0,0.1l0,0c0,0,0,0,0,0.1l0,0
		l0.6,7.1l-11.8-3.3l-0.7-7.3L130.9,26.7z M143.9,23.5l3.1,6.9l-2.2,1.3l-2.8-0.8L143.9,23.5z M155.6,24.2l2.4,0.7l0.5,7.2
		c-0.1,0-0.2,0-0.3,0.1l-9.3,5.5l-0.6-7l0,0l0,0l0,0l0,0l0,0l0,0l-0.4-0.8C149.4,29.4,153.9,28.5,155.6,24.2 M160.8,23.8l1.3,18.9
		l0.4,5c-0.1,0.1,0,0.3,0,0.5l4.5,65l-1.4,1l-6.4-89.5L160.8,23.8z M206.2,46.3l-0.1-3.9l5.1,8.6L206.2,46.3z M204.8,40.8l0.2,5.5
		l-7,4.6c-0.5-0.8-0.9-1.7-1.2-2.4l-0.2-0.9c-0.1-0.2-0.2-0.4-0.5-0.5l-0.9-0.2L204.8,40.8z M211.6,71.2l10.8-7.7l0.1,2.2
		c0,0,0,0-0.1,0l-5.5,4c-0.3,0.2-0.3,0.6-0.1,0.8c0.1,0.2,0.3,0.3,0.5,0.3c0.1,0,0.2,0,0.4-0.1l4.9-3.5l0.1,2.3l0,0l-4.4,3.2
		c-0.3,0.2-0.3,0.6-0.1,0.8c0.1,0.2,0.3,0.3,0.5,0.3c0.1,0,0.2,0,0.4-0.1l3.8-2.7l0.1,2.3l-3.3,2.3c-0.3,0.2-0.3,0.6-0.1,0.8
		c0.1,0.2,0.3,0.3,0.5,0.3c0.1,0,0.2,0,0.4-0.1l2.6-1.9l0.1,2.3l-2.1,1.5c-0.3,0.2-0.3,0.6-0.1,0.8c0.1,0.2,0.3,0.3,0.5,0.3
		c0.1,0,0.2,0,0.4-0.1l1.5-1l0.1,2.3l-1,0.7c-0.3,0.2-0.3,0.6-0.1,0.8c0.1,0.2,0.3,0.3,0.5,0.3c0.1,0,0.2,0,0.3-0.1l0.3-0.2
		l-0.5,1.6l-17.9-8.1l5-3.5c0.1,0,0.2-0.1,0.2-0.2L211.6,71.2L211.6,71.2 M311.9,140.3l-9.3-3l0.6-11l9.4,3L311.9,140.3z M302.2,125
		L302.2,125C302.2,125,302.2,125.1,302.2,125C302.2,125.1,302.2,125.1,302.2,125c-0.1,0.1-0.1,0.1-0.1,0.2l0,0l0,0l0,0l0,0
		c0,0,0,0,0,0.1c0,0,0,0,0,0.1l0,0v0.1L187.9,88.1l35.9,4.7l84.4,26.3L302.2,125z M193.3,112.4L193.3,112.4l-11.4,8.9l-13-4.5
		c-0.1,0-0.1,0-0.2,0l0,0c0,0,0,0-0.1,0c0,0,0,0-0.1,0l0,0l0,0l0,0l0,0l0,0l0,0l0,0l-18.2,13.7l1.5-4.6c0.1,0,0.2,0,0.4-0.1l15.9-12
		l0,0c0,0,0,0,0.1-0.1l0,0l0,0c0,0,0-0.1,0.1-0.1v-0.1c0,0,0,0,0-0.1l0,0v-0.1l-1.4-20.8l10.2-7.1l3.9,1.7c0.1,0,0.2,0.1,0.2,0.1
		h0.1l15.6,22.6L193.3,112.4z M126,132l-0.3,0.2l0,0l-45.1,32.4l-3.2-20.3l0,0c0,0,0,0,0-0.1c0,0,0,0,0-0.1l0,0l0,0l0,0
		c0,0,0,0,0-0.1l0,0l0,0l0,0l0,0l0,0l0,0l-5.2-4.3c-0.1-0.1-0.3-0.2-0.4-0.1l-1.7,0.2l-0.1-0.7l61.5-41.7l1.8,18.2l0.6,11.1L126,132
		z M66.9,150.5l-8.6-3.5l3.9-4.9l1.1-0.2c0.3-0.1,0.5-0.4,0.5-0.7l-0.2-0.9l0.8-1.5c0.1-0.1,0.1-0.3,0.1-0.4l-0.6-3.9l0.6-3.9
		l1.8,3.2l0.7,4.5c0,0.2,0.2,0.4,0.3,0.4l1,0.5l0.2,1.4c0.1,0.3,0.3,0.5,0.7,0.5l2-0.2l4.4,3.6l-5.1,3.5l0,0L66.9,150.5z
		 M48.1,126.2l3.6,19.7v0.1l-1.5,3.4l-4-22.1L48.1,126.2z M53.2,145.9l4.8,8l0.5,2.9l-7.4-3l-0.4-2.2L53.2,145.9z M53.5,144.1
		c-0.1-0.2-0.3-0.3-0.5-0.3c-0.1,0-0.3,0.1-0.4,0.2l-0.5-2.8l10.6-6.8l0,0c0,0.1,0,0.1,0,0.2l0.6,3.8l-0.8,1.5
		c-0.1,0.1-0.1,0.3-0.1,0.4l0.1,0.5l-0.8,0.1c-0.1,0-0.3,0.1-0.4,0.2l-4.5,5.7c-0.2,0.2-0.2,0.6,0.1,0.8l0.5,2.9L53.5,144.1z
		 M130.3,89.4l0.7,6.5L68.9,138l-0.7-0.4l-0.7-4.2c0-0.1,0-0.1-0.1-0.2l-0.8-1.4L130.3,89.4z M134.7,126.5l-0.6-10.2l17.5,6.2l-3,9
		L134.7,126.5z M152.5,37L152.5,37l6.1-3.7l0.2,2.9c-0.1,0-0.2,0-0.3,0.1l-6.2,3.7c-0.3,0.2-0.4,0.5-0.2,0.8
		c0.1,0.2,0.3,0.3,0.5,0.3c0.1,0,0.2,0,0.3-0.1l5.9-3.5l0.2,2.9c-0.1,0-0.2,0-0.2,0.1l-6,3.6c-0.3,0.2-0.4,0.5-0.2,0.8
		c0.1,0.2,0.3,0.3,0.5,0.3c0.1,0,0.2,0,0.3-0.1l5.7-3.4l0.2,2.8c-0.1,0-0.1,0-0.2,0.1l-5.8,3.5c-0.3,0.2-0.4,0.5-0.2,0.8
		c0.1,0.2,0.3,0.3,0.5,0.3c0.1,0,0.2,0,0.3-0.1l5.5-3.3l0.2,2.8c-0.1,0-0.1,0-0.2,0.1l-5.6,3.4c-0.3,0.2-0.4,0.5-0.2,0.8
		c0.1,0.2,0.3,0.3,0.5,0.3c0.1,0,0.2,0,0.3-0.1l5.3-3.2l0.2,2.8c-0.1,0-0.1,0-0.2,0.1l-5.4,3.4c-0.3,0.2-0.4,0.5-0.2,0.8
		c0.1,0.2,0.3,0.3,0.5,0.3c0.1,0,0.2,0,0.3-0.1l5.1-3.1l0.2,2.8c0,0-0.1,0-0.1,0.1l-5.3,3.3c-0.3,0.2-0.4,0.5-0.2,0.8
		c0.1,0.2,0.3,0.3,0.5,0.3c0.1,0,0.2,0,0.3-0.1l4.9-3l0.2,2.8h-0.1l-5.1,3.2c-0.3,0.2-0.4,0.6-0.2,0.8c0.1,0.2,0.3,0.3,0.5,0.3
		c0.1,0,0.2,0,0.3-0.1l4.6-2.9l0.2,2.8c0,0,0,0-0.1,0l-4.9,3.1c-0.3,0.2-0.4,0.6-0.2,0.8c0.1,0.2,0.3,0.3,0.5,0.3
		c0.1,0,0.2,0,0.3-0.1l4.4-2.8l0.2,2.8l0,0l-4.7,3c-0.3,0.2-0.4,0.6-0.2,0.8c0.1,0.2,0.3,0.3,0.5,0.3c0.1,0,0.2,0,0.3-0.1l4.2-2.7
		l0.2,2.8l0,0l-4.6,2.9c-0.3,0.2-0.4,0.6-0.2,0.8c0.1,0.2,0.3,0.3,0.5,0.3c0.1,0,0.2,0,0.3-0.1l4-2.6l0.2,2.8l-4.4,2.8
		c-0.3,0.2-0.4,0.6-0.2,0.8c0.1,0.2,0.3,0.3,0.5,0.3c0.1,0,0.2,0,0.3-0.1l3.8-2.5l0.2,2.8l-4.2,2.7c-0.3,0.2-0.4,0.6-0.2,0.8
		c0.1,0.2,0.3,0.3,0.5,0.3c0.1,0,0.2,0,0.3-0.1l3.6-2.4l0.2,2.8l-3.9,2.6c-0.3,0.2-0.4,0.6-0.2,0.8c0.1,0.2,0.3,0.3,0.5,0.3
		c0.1,0,0.2,0,0.3-0.1l3.4-2.2l0.2,2.8l-3.7,2.5c-0.3,0.2-0.3,0.6-0.2,0.8c0.1,0.2,0.3,0.3,0.5,0.3c0.1,0,0.2,0,0.3-0.1l3.2-2.1
		l0.2,2.8l-3.5,2.4c-0.3,0.2-0.3,0.6-0.2,0.8c0.1,0.2,0.3,0.3,0.5,0.3c0.1,0,0.2,0,0.3-0.1l3-2l0.2,2.8l-3.3,2.3
		c-0.3,0.2-0.3,0.6-0.2,0.8c0.1,0.2,0.3,0.3,0.5,0.3c0.1,0,0.2,0,0.3-0.1l2.8-1.9l0.2,2.8l-3.1,2.2c-0.3,0.2-0.3,0.6-0.1,0.8
		c0.1,0.2,0.3,0.3,0.5,0.3c0.1,0,0.2,0,0.3-0.1l2.5-1.8l0.2,2.8l-2.9,2.1c-0.3,0.2-0.3,0.6-0.1,0.8c0.1,0.2,0.3,0.3,0.5,0.3
		c0.1,0,0.2,0,0.3-0.1l2.3-1.7l0.2,2.7l-2.7,2c-0.3,0.2-0.3,0.6-0.1,0.8c0.1,0.2,0.3,0.3,0.5,0.3c0.1,0,0.2,0,0.4-0.1l2.1-1.5
		l0.2,2.7l-2.5,1.9c-0.1,0-0.1,0.1-0.1,0.2l-6,4.6L149,39l0,0L152.5,37z M154.6,122.5l-2.3,1.7l0.6-1.9l0,0l0,0c0,0,0,0,0-0.1
		c0,0,0,0,0-0.1l0,0V122l-7.5-89.4l1.7-1L154.6,122.5z M144.3,32.8l7.4,88.4l-2.2-0.8c0-0.1,0-0.2,0-0.2l-7.7-88.1L144.3,32.8z
		 M148.4,120l-11-3.9l-7.8-79.6l11.8,3.3L148.4,120z M193,48.9l1.3,0.3v0.4c0,0.1,0,0.2,0.1,0.3c0.3,0.6,7.6,14.1,14.8,20v1.4
		l-5.4,3.8l-8.5-3.9l0,0c0,0,0,0-0.1,0c0,0,0,0-0.1,0c0,0,0,0-0.1,0c0,0,0,0-0.1,0c0,0,0,0-0.1,0c0,0,0,0-0.1,0c0,0,0,0-0.1,0
		c0,0,0,0-0.1,0l0,0c0,0,0,0-0.1,0l0,0l-1.5,1c-2.8-3.4-5.9-8.3-7.8-11.6l7.5-5c0.2-0.1,0.3-0.3,0.3-0.5L193,48.9z M223,85.2
		l0.2,6.4l-40.6-5.3l0.2-0.2c0.1-0.1,0.2-0.3,0.3-0.5c0-0.2-0.1-0.4-0.2-0.5c-0.8-0.7-1.6-1.6-2.4-2.5l0,0l10.1-6.8l3.9,1.8
		c0,0,0,0,0.1,0l0,0h0.1l0,0c0.1,0,0.1,0,0.2,0l0,0c0.1,0,0.1-0.1,0.2-0.1l1.4-1c0.2-0.1,0.3-0.3,0.3-0.5s-0.1-0.4-0.3-0.5
		c-0.8-0.5-1.6-1.2-2.4-2.2l1.1-0.8L223,85.2z M177.2,84.3L165.4,73l-0.4-6.2l1.9,0.6v0.5V68l0,0v0.1c0.3,0.5,6.2,11,11.7,16.8
		L177.2,84.3z M179.6,57.6l1.3,0.4v0.5l0,0v0.1l0,0v0.1l0,0c0.3,0.5,6.1,10.7,10.9,16.2l-1-0.5l-11-10.6L179.6,57.6z M179.3,65.1
		l10.3,9.9l-9.8,6.6l-0.1,0.1c-3.1-3.7-6.1-8.4-8-11.6L179.3,65.1z M175.9,84.7l-9.3,6.5l-1.1-16.4L175.9,84.7z M191.8,49.2l0.3,5.8
		l-7.1,4.8c-0.7-1.2-1.2-2.1-1.3-2.4v-0.8c0-0.3-0.2-0.5-0.4-0.5l-1.3-0.4L191.8,49.2z M178.4,57.9l0.3,6.1l-7.7,5.2
		c-0.7-1.2-1.3-2.1-1.4-2.4l-0.1-0.8c0-0.2-0.2-0.5-0.4-0.5l-1.6-0.5L178.4,57.9z M108.7,82.8c1.7,0.8,10,4.6,20.4,6l-63.1,42
		l-1.3-2.3c-0.1-0.2-0.4-0.3-0.6-0.3c-0.3,0-0.5,0.2-0.5,0.5l-0.6,4.2c-0.1,0-0.2,0-0.3,0.1l-10.8,7l-2.6-14.5
		c0-0.2-0.2-0.4-0.4-0.5h-0.1l-0.8-4.1L108.7,82.8z M44,121.9c0.1,0,0.1,0,0.2,0c0.1,0,0.2,0,0.3-0.1l2.2-1.4v0.2l0.8,4.4l-2.3,1.5
		l-2.1-0.8c0-0.1,0-0.1,0-0.2l-0.8-4.3L44,121.9z M42.9,120.2l1.7-1l1.3,0.5l-1.7,1L42.9,120.2z M45.1,127.8L45.1,127.8l4.4,23.8
		l0,0l0.5,2.7c0,0.2,0.2,0.4,0.4,0.5l8.4,3.4l1.8,10.5l-10.7-4.5c0.1-0.1,0.1-0.2,0.1-0.4l-5.7-29.6l-1.4-7.3L45.1,127.8z
		 M27.8,154.9L23,131.4l0.7,0.3l4.5,22.1c0,0.2,0.2,0.4,0.4,0.4l19.8,8.3l0.2,1.2L27.8,154.9z M48.1,161.1l-18.8-7.9l-4.2-21
		l18.9,7.6L48.1,161.1z M43.7,138.3l-21-8.4l-0.6-3l20.9,7.9L43.7,138.3z M19,117.7l7.4,36.7l-1.7-0.7l-7.6-36.8L19,117.7z
		 M20.8,140.5l0.2,1.2l-8.2-3.6c0,0,0,0-0.1,0l-0.2-0.8v-0.1l2.4-6.9l5.6,10.1C20.7,140.4,20.7,140.5,20.8,140.5 M21.3,143.1
		l2.1,9.9l-8.1-3.4l-2.2-10.2L21.3,143.1z M20,136.6l-4.5-8.1c-0.1-0.2-0.3-0.3-0.6-0.3c-0.2,0-0.4,0.2-0.5,0.4l-2.3,6.4l-1.4-6.6
		l6.7-4.1L20,136.6z M73.9,210.9l-10.2-60.5l2.8,1.1l9.4,60.7l-1.9-0.8L73.9,210.9z M77,212.2l-9.4-60.7l3.7-2.6l4.9-3.4l0.5,3.4
		l-5.3,3.7c-0.3,0.2-0.3,0.6-0.2,0.8c0.1,0.2,0.3,0.3,0.5,0.3c0.1,0,0.2,0,0.3-0.1l4.8-3.3l0.5,3.4l-5.1,3.6
		c-0.3,0.2-0.3,0.6-0.1,0.8c0.1,0.2,0.3,0.3,0.5,0.3c0.1,0,0.2,0,0.3-0.1l4.7-3.3l0.5,3.4l-5,3.5c-0.3,0.2-0.3,0.6-0.1,0.8
		c0.1,0.2,0.3,0.3,0.5,0.3c0.1,0,0.2,0,0.3-0.1l4.5-3.2l0.5,3.4l-4.9,3.5c-0.3,0.2-0.3,0.6-0.1,0.8c0.1,0.2,0.3,0.3,0.5,0.3
		c0.1,0,0.2,0,0.3-0.1l4.4-3.1l0.2,1.2c-0.1,0.2-0.1,0.4,0.1,0.6l0,0l0.2,1.5l-4.7,3.4c-0.3,0.2-0.3,0.6-0.1,0.8
		c0.1,0.2,0.3,0.3,0.5,0.3c0.1,0,0.2,0,0.4-0.1l4.2-3.1l0.5,3.4l-4.6,3.3c-0.3,0.2-0.3,0.6-0.1,0.8c0.1,0.2,0.3,0.2,0.5,0.2
		c0.1,0,0.2,0,0.4-0.1l4.1-3l0.5,3.4l-4.5,3.3c-0.3,0.2-0.3,0.6-0.1,0.8c0.1,0.2,0.3,0.2,0.5,0.2c0.1,0,0.2,0,0.4-0.1l3.9-2.9
		l0.5,3.4l-4.3,3.2c-0.3,0.2-0.3,0.6-0.1,0.8c0.1,0.2,0.3,0.2,0.5,0.2c0.1,0,0.2,0,0.4-0.1l3.8-2.8l0.5,3.4l-4.2,3.1
		c-0.3,0.2-0.3,0.6-0.1,0.8c0.1,0.2,0.3,0.2,0.5,0.2c0.1,0,0.3,0,0.4-0.1l3.7-2.8l0.5,3.4l-4,3.1c-0.3,0.2-0.3,0.6-0.1,0.8
		c0.1,0.2,0.3,0.2,0.5,0.2c0.1,0,0.3,0,0.4-0.1l3.5-2.7l0.5,3.4l-3.9,3c-0.3,0.2-0.3,0.6-0.1,0.9c0.1,0.2,0.3,0.2,0.5,0.2
		c0.1,0,0.3,0,0.4-0.1l3.4-2.6l0.5,3.4l-3.8,2.9c-0.3,0.2-0.3,0.6-0.1,0.9c0.1,0.1,0.3,0.2,0.5,0.2c0.1,0,0.3,0,0.4-0.1l3.2-2.5
		l0.5,3.3L77,212.2z M80.7,166l46-33.1l5.6-3.9l0.4,3.8l-6.2,4.4c-0.3,0.2-0.3,0.6-0.1,0.8c0.1,0.2,0.3,0.3,0.5,0.3
		c0.1,0,0.2,0,0.3-0.1l5.6-4l0.4,3.8l-5.8,4.2c-0.3,0.2-0.3,0.6-0.1,0.8c0.1,0.2,0.3,0.3,0.5,0.3c0.1,0,0.2,0,0.4-0.1l5.3-3.8
		l0.4,3.8l-5.5,4c-0.3,0.2-0.3,0.6-0.1,0.8c0.1,0.2,0.3,0.2,0.5,0.2c0.1,0,0.2,0,0.4-0.1l4.9-3.6l0.4,3.8l-5.1,3.8
		c-0.3,0.2-0.3,0.6-0.1,0.8c0.1,0.2,0.3,0.2,0.5,0.2c0.1,0,0.2,0,0.4-0.1l4.6-3.4l0.4,3.8l-4.8,3.6c-0.3,0.2-0.3,0.6-0.1,0.8
		c0.1,0.2,0.3,0.2,0.5,0.2c0.1,0,0.3,0,0.4-0.1l4.2-3.2l0.4,3.8l-4.4,3.4c-0.3,0.2-0.3,0.6-0.1,0.9c0.1,0.2,0.3,0.2,0.5,0.2
		c0.1,0,0.3,0,0.4-0.1l3.8-3l0.4,3.7l-49.5,38.7L80.7,166z M182.6,122.3l14.3-11.2l0.1,2.5l-3.5,2.8c-0.3,0.2-0.3,0.6-0.1,0.9
		c0.1,0.2,0.3,0.2,0.5,0.2c0.1,0,0.3,0,0.4-0.1l2.8-2.2l0.1,2.5l-3.5,2.7c-0.3,0.2-0.3,0.6-0.1,0.8c0.1,0.1,0.3,0.2,0.5,0.2
		c0.1,0,0.3,0,0.4-0.1l2.8-2.2l0.1,2.5l-3.4,2.7c-0.3,0.2-0.3,0.6-0.1,0.8c0.1,0.1,0.3,0.2,0.5,0.2c0.1,0,0.3,0,0.4-0.1l2.7-2.2
		l0.1,2.5l-3.3,2.7c-0.3,0.2-0.3,0.6-0.1,0.9c0.1,0.1,0.3,0.2,0.5,0.2c0.1,0,0.3,0,0.4-0.1l2.6-2.1l0.1,2.5l-3.2,2.6
		c-0.3,0.2-0.3,0.6-0.1,0.9c0.1,0.1,0.3,0.2,0.5,0.2c0.1,0,0.3,0,0.4-0.1l2.5-2.1l0.1,2.4l-3.2,2.6c-0.3,0.2-0.3,0.6-0.1,0.9
		c0.1,0.1,0.3,0.2,0.5,0.2c0.1,0,0.3,0,0.4-0.1l2.5-2l0.1,2.4l-3.1,2.6c-0.3,0.2-0.3,0.6-0.1,0.9c0.1,0.1,0.3,0.2,0.5,0.2
		c0.1,0,0.3,0,0.4-0.1l2.4-2l0.1,2.4l-3,2.5c-0.3,0.2-0.3,0.6-0.1,0.8c0.1,0.1,0.3,0.2,0.5,0.2c0.1,0,0.3,0,0.4-0.1l2.3-1.9l0.1,2.4
		l-2.9,2.5c-0.3,0.2-0.3,0.6-0.1,0.8c0.1,0.1,0.3,0.2,0.5,0.2c0.1,0,0.3,0,0.4-0.1l2.2-1.9l0.1,2.4l-2.9,2.4l0,0L185,161
		L182.6,122.3z M302.4,138.8c0.1-0.1,0.1-0.2,0.1-0.3l8.8,2.9l-7.3,8.2l-9.3-3.6L302.4,138.8z M352.6,128.9l8.1,2.1l-3.1,3.6l0,0
		l-14.7,17.2l1.2-13.5c0.2,0,0.3-0.1,0.4-0.2l5.5-6.2L352.6,128.9z M348.5,131.8l-4.3,4.8l0.5-6L348.5,131.8z M345.3,106.9l-4.9,5.2
		l0.3-4.7c0-0.1,0-0.2,0-0.3l0.1-1.6L345.3,106.9z M330.9,98.1l8.8,2.6L313,128.1l-9.3-2.9l5.9-5.9L330.9,98.1z M222.6,61.9
		L222.6,61.9c-0.2,0.1-0.3,0.1-0.3,0.2l-6.6,4.8c-0.1,0-0.1,0.1-0.1,0.2l-3.8,2.7l-0.1-0.9c0-0.1-0.1-0.2-0.2-0.3
		c-0.1-0.1-8.4-8.9-12.8-16.4l6.9-4.7l7.9,7.5l0,0l0.2,0.2l0,0c0.1,0,0.1,0.1,0.2,0.1l0,0c0.1,0,0.1,0,0.2,0l0,0c0,0,0.1,0,0.2,0
		l0,0c0.1,0,0.1,0,0.1-0.1l0,0l0.7-0.5L222.6,61.9z M205.6,38.8l-40.7,26.4l-1.2-17l29.6-18.5L205.6,38.8z M164.3,41.1
		c0.1-0.1,0.1-0.2,0.1-0.4v-0.5l0.9-0.5l2.2,0.6c0.2,0,0.3,0,0.5-0.1l13-8l9.2-1.9l-26.5,16.6l-0.3-4L164.3,41.1z M157.6,15.8
		l2.9,6.7l-2.1,1.2l-2.8-0.8L157.6,15.8z M140.8,6.1c0-0.1,0-0.1,0.1-0.2l0.2-3.5c0.3,1.1,0.6,2.5,0.9,3.5c0,0.1,0,0.1,0.1,0.2
		l11.1,16.2c0,0,0,0,0,0.1l1.2,1.3c-1.6,4.2-6.6,4.7-7,4.7l-3.1-7l0,0c0,0,0,0,0-0.1l0,0l0,0l0,0c0,0,0,0-0.1,0l0,0c0,0,0,0-0.1,0
		c0,0,0,0-0.1,0l0,0l0,0c0,0,0,0-0.1,0h-0.1c0,0,0,0-0.1,0c0,0,0,0-0.1,0c0,0,0,0-0.1,0c0,0,0,0-0.1,0l0,0l0,0c0,0,0,0-0.1,0l0,0
		l0,0l0,0l0,0l0,0l0,0c0,0,0,0,0,0.1l0,0l-2,7.6c-6.3,0-8.8-2.6-9.4-3.4L140.8,6.1z M127.1,18.9l3.2,6.7l-2.2,1.3l-2.7-0.8
		L127.1,18.9z M102.2,68.9c2.2-8,8-13.3,17.2-15.8c0.3-0.1,0.5-0.4,0.4-0.7c-0.1-0.6-0.3-2.4,0.3-3.4c0.2-0.3,0.5-0.5,0.9-0.6
		c0.3-0.1,0.5-0.3,0.5-0.6v-1c0.1,0,0.2,0,0.3,0l0.1,1c0,0.3,0.3,0.6,0.6,0.6c0,0,0.7,0,1.2,0.6c0.6,0.6,0.8,1.7,0.8,3.1
		c0,0.3,0.2,0.6,0.6,0.6c0.7,0.1,1.4,0.1,1.8,0.2l3,29.5c-11.6,2.2-20.3-0.6-20.4-0.6l0,0c-0.2-0.1-0.3-0.1-0.3-0.1l0,0h-0.1l0,0
		c0,0,0,0-0.1,0s-6.9-0.5-7.4-3.9c0,0,0,0,0-0.1C101.1,75.4,101.2,72.3,102.2,68.9 M26.4,99.8c-0.6-0.9-0.8-1.8-0.9-2.3l2.2-1.3
		l0.3,0.7c0.1,0.1,0.2,0.2,0.4,0.3c0.2,0,0.3,0,0.5-0.1l1.5-0.8l0.2,0.2l0.5,2.7l-0.7,0.7c-0.1,0.1-0.2,0.3-0.2,0.5
		c0.1,1.2,0.4,5.2,0.9,6s7.7,13.1,7.7,13.1c0.1,0.1,0.2,0.2,0.4,0.3c0.2,0,0.3,0,0.5-0.1l2.8-1.8c0.1-0.1,0.2-0.1,0.2-0.2l1-2.2
		c0-0.1,0.1-0.2,0.1-0.3l1.7,0.6c0.1,0,0.1,0,0.2,0c0.2,0,0.5-0.2,0.6-0.4c0.1-0.3,0-0.7-0.4-0.8l-1.5-0.6l0.8-0.5l2.4,0.9
		c0.2,0.1,0.4,0,0.5-0.1l13.5-8.3c0.1-0.1,0.2-0.1,0.2-0.2l1.1-2.1c0.1-0.1,0.1-0.2,0.1-0.3l1.7,0.6c0.1,0,0.1,0,0.2,0
		c0.2,0,0.5-0.2,0.6-0.4c0.1-0.3-0.1-0.7-0.4-0.8l-1.4-0.5l0.6-0.4l2.3,0.9c0.2,0.1,0.4,0,0.5-0.1l12.5-7.8c0.1-0.1,0.2-0.1,0.2-0.2
		l1.1-2.1c0.1-0.1,0.1-0.2,0.1-0.3l1.7,0.6c0.1,0,0.1,0,0.2,0c0.2,0,0.5-0.2,0.6-0.4c0.1-0.3-0.1-0.7-0.4-0.8l-1.4-0.5l0.5-0.3
		l2.3,0.8c0.2,0.1,0.4,0,0.5-0.1l11.7-7.2c0.1-0.1,0.2-0.1,0.2-0.2l1.1-2.1c0-0.1,0.1-0.2,0.1-0.3v-0.1l1.6,0.6c0.1,0,0.1,0,0.2,0
		c0.2,0,0.5-0.1,0.6-0.4s0-0.7-0.4-0.8l-1.3-0.5l0.4-0.2l1.5,0.5c0.4,1.2,2.4,1.8,6,1.8L48,119.5v-0.2l0,0l0,0v-0.1l0,0l0,0l0,0l0,0
		l-0.1-0.1l0,0c0,0-0.1,0-0.1-0.1l0,0l-2.7-1c-0.2-0.1-0.4,0-0.5,0.1l-3,1.8c-0.2,0.1-0.3,0.4-0.3,0.6l0.9,5l-0.1,0.1l0,0l-0.1,0.1
		l0,0c0,0,0,0.1-0.1,0.1l0,0l0,0v0.1l0,0v0.1l0,0l0.9,5.1l-14.4-24C27.9,106.2,27.4,101.3,26.4,99.8 M27.5,108.8l14.7,24.4L22,125.6
		h-0.1l-0.4-1.8l0,0l2.2-5.1l0,0l0,0L27.5,108.8z M21.8,115.1c-0.9,0.5-1.5,0.9-2,1.1l-0.9-4.6l1.9-1.1L21.8,115.1z M18.7,109.2
		l1.1,0.4l-1.7,1l-1.1-0.4L18.7,109.2z M6.2,119.9l0.7-0.1c0.2,0,0.3-0.1,0.4-0.2s0.1-0.3,0.1-0.5l-0.3-1.2l0.8-1.3
		c0.1-0.1,0.1-0.3,0.1-0.4l-0.8-3.9l0.5-3.7l1.9,3.1l0.9,4.3c0,0.2,0.2,0.4,0.4,0.4l1,0.4l0.4,1.8c0.1,0.3,0.4,0.5,0.7,0.5l2.3-0.3
		l1.4,1.2l0.7,3.2l-7.1,4.4l-7.9-3.2L6.2,119.9z M1.3,125.3l1.8,0.7C3,126.1,3,126.3,3,126.4l13,58.7l-1.5-0.7l-0.4-2v-0.1
		c0,0,0,0,0-0.1L1.3,125.3z M13,183.4l0.4,1.6c0,0.2,0.2,0.3,0.3,0.4l2.9,1.3l0,0c0,0,0,0,0.1,0h0.1l0,0l0,0c0,0,0,0,0.1,0l0,0
		c0,0,0,0,0.1,0l0,0c0,0,0.1,0,0.1-0.1l0,0l0,0l0,0l0.4-0.2l4.4,2c0.2,0.1,0.4,0.1,0.6-0.1L23,188l1.2,0.6c0.2,0.1,0.4,0.1,0.6-0.1
		l0.3-0.2l8.8,4l0.1,0.5c0,0.2,0.2,0.3,0.3,0.4l0.4,0.2l0.1,0.7c0,0.2,0.2,0.3,0.3,0.4l1.8,0.8c0.2,0.1,0.4,0.1,0.6-0.1l0.5-0.3
		l1.3,0.6c0.2,0.1,0.4,0.1,0.6-0.1l0.3-0.2l10.6,4.8l0.1,0.5c0,0.2,0.2,0.3,0.3,0.4l0.4,0.2l0.1,0.7c0,0.2,0.2,0.4,0.3,0.4l2,0.7
		c0.2,0.1,0.4,0.1,0.6-0.1l0.5-0.3l1.3,0.6c0.2,0.1,0.4,0.1,0.6-0.1l0.3-0.2l9.3,4.2l0.1,0.5c0,0.1,0,0.1,0.1,0.2l0,0l0.1,0.1l0,0
		l0.1,0.1l0.5,0.2l0.1,0.7c0,0.2,0.2,0.4,0.3,0.4l4.8,2.2l0.1,0.5c0,0.2,0.2,0.4,0.3,0.4l3.2,1.4l0,0l0,0c0.1,0,0.1,0,0.2,0l0,0h0.1
		h0.1l0,0c0.1,0,0.1-0.1,0.2-0.1l0,0l9.7-7.7l0.1-0.1l0,0v-0.1l0,0v-0.1l0,0v-0.1l0,0l-0.3-1.7l45.8-35.8c0.1,0,0.1-0.1,0.2-0.1
		l4.1-3.2l4.6,1.8c0.1,0,0.1,0,0.2,0l4.3,1.7l6.4,2.5l0,0c0.1,0,0.1,0,0.2,0l0,0c0.1,0,0.1,0,0.2,0c0,0,0,0,0.1,0c0,0,0.1,0,0.1-0.1
		l0,0l0,0l14.4-11.8l3.9-3.2l1.7,1.2l-19.8,16.4l-14.1-5.6c-0.2-0.1-0.4,0-0.6,0.1l-61.5,47.9L10.4,185L13,183.4z M153.6,177.4
		l-14.2-5.6c-0.2-0.1-0.4,0-0.6,0.1l-61.5,49.7L5.6,188.5l1.5-1l69.8,32.4c0.1,0,0.2,0.1,0.3,0.1c0.1,0,0.3,0,0.4-0.1l61.4-49
		l14.1,5.6c0.2,0.1,0.4,0,0.6-0.1l21.4-17.8l0.5,0.4L153.6,177.4z M210.5,117.6l0.6,26.1l-7,6l-0.9-26.1c0.2-0.5,1.2-4.1,4.2-5.5
		C208.4,117.7,209.4,117.5,210.5,117.6 M234.4,160.8V135c0.2-0.6,1.4-4.7,4.7-6.3c0.7-0.4,1.5-0.6,2.3-0.6v26.2L234.4,160.8z
		 M258.8,160.3c0-0.1,0.2-13.2,0.1-16.6c-0.1-3.7-2.8-11.7-12.6-15.9c-2.9-1.2-5.4-1.3-7.7-0.2c-4,2-5.3,6.9-5.3,7.2v0.1V161
		l-6.2-2.2l-0.2-9.8c0-0.2-0.1-0.3-0.2-0.4c0,0,0,0,0-0.1v-10.2c0-0.7,0.7-14.2-10.3-20.1c-3.7-2-6.8-2.4-9.4-1.2
		c-3.8,1.7-4.9,6.2-4.9,6.3c0,0.1,0,0.1,0,0.2l0.9,26.6l-3.2-1.2l-1.6-38.2l97.8,32.5l-2.7,2.5c-0.1,0-0.1,0.1-0.1,0.1l0,0
		c0,0,0,0,0,0.1l0,0l0,0l0,0c0,0,0,0,0,0.1c0,0,0,0,0,0.1l0,0l-0.2,5.4c-1.3-3.5-4.4-8.4-11.2-11.7c-2.2-1-4.2-1.6-6.1-1.6
		c-6.8,0-9.1,6.9-9.1,7s0,0.1,0,0.2l-0.8,27.3l-6.9-2.5L258.8,160.3z M292.6,183l1.2-27.3l0,0l0.4-8.5l9.4,3.6l-5.4,97.5l-8.4-3.4
		L292.6,183z"/>
	<path class="st0" d="M185.2,28.1c0-4.6,3.7-8.4,8.4-8.4c4.6,0,8.4,3.7,8.4,8.4c0,4.6-3.8,8.4-8.4,8.4
		C189,36.4,185.2,32.7,185.2,28.1"/>
	<g>
		<path class="st0" d="M73.8,109.3c0-4.6,3.7-8.4,8.4-8.4c4.6,0,8.4,3.7,8.4,8.4c0,4.6-3.8,8.4-8.4,8.4
			C77.5,117.7,73.8,114,73.8,109.3"/>
		<g>
			<path class="st1" d="M79.2,112.6c0-0.4,0-0.8,0.1-1.1c0.1-0.3,0.2-0.6,0.3-0.9c0.2-0.3,0.4-0.5,0.6-0.8s0.6-0.5,1-0.7
				s0.7-0.4,0.9-0.5s0.5-0.3,0.7-0.4s0.3-0.2,0.4-0.4c0.1-0.1,0.1-0.3,0.1-0.4c0-0.3-0.1-0.5-0.3-0.7s-0.5-0.3-0.9-0.3
				c-0.2,0-0.4,0-0.6,0.1s-0.3,0.1-0.5,0.2s-0.3,0.2-0.4,0.3c-0.1,0.1-0.2,0.2-0.4,0.4l-1.1-1.3c0.1-0.1,0.3-0.3,0.5-0.4
				s0.5-0.3,0.7-0.4c0.3-0.1,0.6-0.2,1-0.3c0.3-0.1,0.7-0.1,1.1-0.1s0.9,0.1,1.2,0.2c0.4,0.1,0.6,0.3,0.9,0.5
				c0.2,0.2,0.4,0.4,0.6,0.7c0.1,0.3,0.2,0.6,0.2,0.9s-0.1,0.6-0.2,0.8c-0.1,0.2-0.3,0.4-0.4,0.6c-0.2,0.2-0.4,0.3-0.6,0.5
				c-0.2,0.1-0.4,0.3-0.6,0.4s-0.3,0.2-0.5,0.3c-0.2,0.1-0.4,0.2-0.5,0.4c-0.2,0.1-0.3,0.3-0.5,0.4c-0.1,0.1-0.3,0.3-0.3,0.5h3.8
				v1.6L79.2,112.6L79.2,112.6z"/>
		</g>
	</g>
	<g>
		<path class="st0" d="M93.2,58.5c0-4.6,3.7-8.4,8.4-8.4c4.6,0,8.4,3.7,8.4,8.4c0,4.6-3.8,8.4-8.4,8.4S93.2,63.1,93.2,58.5"/>
		<g>
			<path class="st1" d="M103.1,58.6c0.6,0.1,1,0.4,1.3,0.8c0.3,0.4,0.5,0.9,0.5,1.6c0,0.4-0.1,0.8-0.2,1.1c-0.2,0.3-0.4,0.6-0.7,0.9
				s-0.7,0.4-1.1,0.5s-0.9,0.2-1.4,0.2c-0.7,0-1.3-0.1-1.8-0.3s-0.9-0.5-1.3-0.9l1-1.3c0.2,0.3,0.5,0.5,0.8,0.7s0.7,0.2,1.2,0.2
				s0.9-0.1,1.2-0.3c0.3-0.2,0.4-0.5,0.4-1s-0.2-0.8-0.5-1.1c-0.3-0.2-0.8-0.4-1.5-0.4h-0.4V58h0.4c0.5,0,1-0.1,1.3-0.4
				s0.4-0.6,0.4-0.9c0-0.4-0.1-0.6-0.4-0.8c-0.2-0.2-0.6-0.3-1-0.3s-0.8,0.1-1.1,0.3c-0.3,0.2-0.6,0.4-0.8,0.8l-1.1-1.2
				c0.1-0.2,0.3-0.4,0.5-0.5c0.2-0.2,0.5-0.3,0.7-0.4c0.3-0.1,0.6-0.2,0.9-0.3s0.7-0.1,1-0.1c0.4,0,0.9,0.1,1.2,0.2
				c0.4,0.1,0.7,0.3,1,0.5s0.5,0.4,0.6,0.7s0.2,0.6,0.2,1c0,0.3,0,0.5-0.1,0.8s-0.2,0.5-0.3,0.6c-0.1,0.2-0.3,0.4-0.5,0.5
				C103.6,58.5,103.4,58.6,103.1,58.6z"/>
		</g>
	</g>
	<g>
		<path class="st0" d="M23.5,215.7c0-4.6,3.7-8.4,8.4-8.4c4.6,0,8.4,3.7,8.4,8.4c0,4.6-3.8,8.4-8.4,8.4
			C27.2,224,23.5,220.3,23.5,215.7"/>
		<g>
			<path class="st1" d="M34.5,217.3v1.6h-5.4v-1.6H31v-4c-0.1,0.1-0.2,0.2-0.4,0.3c-0.2,0.1-0.4,0.2-0.6,0.3s-0.4,0.2-0.6,0.2
				s-0.4,0.1-0.6,0.1v-1.7c0.2,0,0.4,0,0.6-0.2s0.5-0.2,0.7-0.4s0.4-0.3,0.6-0.4c0.2-0.1,0.3-0.2,0.3-0.3h1.8v5.9h1.7V217.3z"/>
		</g>
	</g>
	<g>
		<path class="st1" d="M194.2,32.6v-2h-3.9V29l4.4-5.7h1.2V29h1.2v1.6H196v2H194.2z M192.2,29.1h2.3v-3L192.2,29.1z"/>
	</g>
	<path class="st0" d="M215.8,99c0-5.2,4.2-9.4,9.4-9.4s9.4,4.2,9.4,9.4c0,5.2-4.2,9.4-9.4,9.4S215.8,104.2,215.8,99"/>
	<g>
		<path class="st1" d="M224.8,97.9c0.4,0,0.8,0.1,1.2,0.2s0.7,0.4,1,0.6s0.5,0.6,0.6,1c0.2,0.4,0.2,0.8,0.2,1.2
			c0,0.5-0.1,0.9-0.3,1.3s-0.4,0.7-0.7,1s-0.7,0.5-1.1,0.6s-0.9,0.2-1.4,0.2c-0.7,0-1.3-0.1-1.8-0.4s-1-0.7-1.2-1.2l1-1.1
			c0.3,0.3,0.6,0.6,0.9,0.8c0.4,0.2,0.7,0.3,1.1,0.3c0.5,0,0.9-0.1,1.2-0.4s0.5-0.7,0.5-1.1c0-0.5-0.1-0.8-0.4-1.1
			c-0.3-0.3-0.6-0.4-1.1-0.4c-0.3,0-0.6,0.1-0.8,0.2s-0.5,0.3-0.6,0.5h-1.5c0,0,0-0.1,0.1-0.3c0-0.2,0.1-0.4,0.1-0.7
			s0.1-0.6,0.2-0.9c0.1-0.3,0.1-0.7,0.2-1c0.2-0.8,0.3-1.7,0.5-2.7h4.6v1.6H224l-0.4,2.1c0.1-0.1,0.3-0.2,0.5-0.3
			C224.2,97.9,224.5,97.9,224.8,97.9z"/>
	</g>
	<path class="st0" d="M262.4,132.9c0-5.2,4.2-9.4,9.4-9.4c5.2,0,9.4,4.2,9.4,9.4c0,5.2-4.2,9.4-9.4,9.4S262.4,138.1,262.4,132.9"/>
	<g>
		<path class="st1" d="M275.1,134.9c0,0.5-0.1,0.9-0.3,1.3c-0.2,0.4-0.4,0.7-0.7,1c-0.3,0.3-0.7,0.5-1.1,0.7s-0.9,0.3-1.4,0.3
			s-1-0.1-1.4-0.3s-0.8-0.5-1.1-0.8c-0.3-0.4-0.5-0.8-0.7-1.4c-0.2-0.5-0.2-1.1-0.2-1.8c0-0.9,0.1-1.6,0.3-2.3
			c0.2-0.7,0.4-1.2,0.7-1.7s0.7-0.8,1.1-1s1-0.3,1.5-0.3c0.6,0,1.1,0.1,1.6,0.4c0.5,0.3,0.9,0.6,1.3,1.1l-1,1.1
			c-0.2-0.3-0.5-0.6-0.8-0.8s-0.7-0.3-1.1-0.3c-0.6,0-1.1,0.2-1.4,0.7s-0.5,1.1-0.5,2c0.2-0.3,0.4-0.6,0.8-0.8
			c0.3-0.2,0.7-0.3,1.2-0.3s0.9,0.1,1.3,0.2c0.4,0.2,0.7,0.4,1,0.7s0.5,0.6,0.7,1C275,134,275.1,134.4,275.1,134.9z M271.7,136.6
			c0.2,0,0.5,0,0.7-0.1s0.4-0.2,0.5-0.4c0.2-0.2,0.3-0.4,0.4-0.6c0.1-0.2,0.1-0.4,0.1-0.7s0-0.5-0.1-0.7s-0.2-0.4-0.4-0.5
			s-0.3-0.3-0.5-0.4c-0.2-0.1-0.4-0.1-0.7-0.1c-0.2,0-0.5,0-0.7,0.1s-0.4,0.2-0.5,0.4c-0.2,0.2-0.3,0.3-0.4,0.5s-0.1,0.4-0.1,0.7
			s0,0.5,0.1,0.7s0.2,0.4,0.4,0.6c0.2,0.2,0.3,0.3,0.5,0.4C271.2,136.6,271.5,136.6,271.7,136.6z"/>
	</g>
	<path class="st0" d="M334.8,114.7c0-5.2,4.2-9.4,9.4-9.4s9.4,4.2,9.4,9.4c0,5.2-4.2,9.4-9.4,9.4S334.8,119.9,334.8,114.7"/>
	<g>
		<path class="st1" d="M345,112.4h-4.3v-1.6h7.1l-4.7,9.4h-2L345,112.4z"/>
	</g>
</g>
<g id="Livello_3">
	<g>
		<g>
			<g>
				<polygon class="st2" points="187.7,318.6 178.1,318.6 169.5,308 178.1,308 				"/>
				<polygon class="st2" points="187.7,296.7 178.1,307.2 169.5,307.2 178.1,296.7 				"/>
			</g>
			<g>
				<path class="st2" d="M237.2,296.7c6.4,0,11.6,4.2,11.6,10.6l0,0h-2.7c0-5-4.1-9.1-9.1-9.1s-9.1,4.1-9.1,9.1h-47l9.4-10.6H237.2z
					"/>
				<path class="st2" d="M237.1,317c5,0,9.1-4.1,9.1-9.1h2.7c0,6.4-5.2,10.6-11.6,10.6h-46.9l-9.4-10.6h47.1
					C228,313,232.1,317,237.1,317z"/>
				<path class="st2" d="M237.1,316.7c-5,0-9.1-4.1-9.1-9.1h18.1C246.1,312.7,242.1,316.7,237.1,316.7z"/>
				<path class="st2" d="M237.1,298.2c5,0,9.1,4.1,9.1,9.1h-18.1C228,302.2,232.1,298.2,237.1,298.2z"/>
			</g>
			<g>
				<path class="st1" d="M191.9,305.8h-2v5.2H188v-5.2h-2v-1.6h5.9V305.8z"/>
				<path class="st1" d="M192.4,305.5v-1.6h1.8v1.6H192.4z M192.4,311.2v-5.1h1.8v5.1H192.4z"/>
				<path class="st1" d="M194.9,308.5c0-0.3,0.1-0.7,0.2-1c0.1-0.3,0.3-0.6,0.5-0.8c0.2-0.2,0.5-0.4,0.9-0.6
					c0.3-0.1,0.8-0.2,1.2-0.2c0.6,0,1.1,0.1,1.6,0.4c0.4,0.3,0.7,0.6,0.9,1l-1.8,0.5c-0.2-0.3-0.4-0.4-0.7-0.4s-0.5,0.1-0.6,0.3
					c-0.2,0.2-0.3,0.5-0.3,0.8c0,0.3,0.1,0.6,0.3,0.8c0.2,0.2,0.4,0.3,0.6,0.3c0.3,0,0.5-0.1,0.7-0.4l1.8,0.5
					c-0.2,0.4-0.5,0.7-0.9,1c-0.4,0.3-0.9,0.4-1.6,0.4c-0.5,0-0.9-0.1-1.2-0.2c-0.3-0.1-0.6-0.3-0.9-0.6c-0.2-0.2-0.4-0.5-0.5-0.8
					C195,309.2,194.9,309,194.9,308.5z"/>
				<path class="st1" d="M204.2,311.2l-1.2-1.9l-0.4,0.4v1.5h-1.8v-7.1h1.8v3.9l1.4-1.9h1.9l-1.8,2.2l1.9,2.9H204.2L204.2,311.2z"/>
				<path class="st1" d="M208.7,311.2c-0.4,0-0.8-0.1-1.2-0.2c-0.3-0.1-0.6-0.3-0.9-0.6c-0.2-0.2-0.4-0.5-0.5-0.8
					c-0.1-0.3-0.2-0.6-0.2-1s0.1-0.7,0.2-1c0.1-0.3,0.3-0.6,0.5-0.9c0.2-0.2,0.5-0.4,0.9-0.6c0.3-0.1,0.7-0.2,1.2-0.2
					s0.9,0.1,1.2,0.2c0.3,0.1,0.6,0.3,0.9,0.6c0.2,0.2,0.4,0.5,0.5,0.8c0.1,0.3,0.2,0.7,0.2,1c0,0.1,0,0.2,0,0.3s0,0.2,0,0.3h-3.6
					c0,0.3,0.1,0.5,0.3,0.6c0.2,0.1,0.4,0.2,0.6,0.2s0.4,0,0.6-0.1s0.3-0.2,0.4-0.4l1.6,0.4c-0.2,0.4-0.5,0.7-1,1
					C209.9,311,209.3,311.2,208.7,311.2z M209.5,308c0-0.2-0.1-0.4-0.3-0.6c-0.2-0.2-0.3-0.2-0.6-0.2c-0.2,0-0.4,0.1-0.6,0.2
					c-0.1,0.1-0.2,0.3-0.3,0.6H209.5z"/>
				<path class="st1" d="M215.6,310.8c-0.3,0.1-0.5,0.2-0.8,0.3c-0.3,0.1-0.6,0.1-0.9,0.1c-0.2,0-0.4,0-0.6-0.1s-0.4-0.1-0.5-0.3
					c-0.1-0.1-0.2-0.3-0.3-0.5c-0.1-0.2-0.1-0.4-0.1-0.7v-2.3h-0.6v-1.4h0.6v-1.6h1.8v1.6h1v1.4h-1v1.7c0,0.2,0,0.3,0.1,0.4
					c0.1,0.1,0.2,0.1,0.3,0.1s0.2,0,0.3,0s0.2-0.1,0.3-0.1L215.6,310.8z"/>
				<path class="st1" d="M221.4,311.2c-0.5,0-0.9-0.1-1.3-0.3c-0.4-0.2-0.8-0.5-1-0.8c-0.3-0.3-0.5-0.7-0.7-1.1
					c-0.2-0.4-0.2-0.9-0.2-1.3c0-0.5,0.1-0.9,0.2-1.3c0.1-0.4,0.4-0.8,0.7-1.1c0.3-0.3,0.6-0.6,1.1-0.8c0.4-0.2,0.8-0.3,1.3-0.3
					s0.9,0.1,1.3,0.3c0.4,0.2,0.8,0.5,1,0.8c0.3,0.3,0.5,0.7,0.7,1.1c0.2,0.4,0.2,0.9,0.2,1.3c0,0.5-0.1,0.9-0.2,1.3
					c-0.2,0.4-0.4,0.8-0.7,1.1c-0.3,0.3-0.6,0.6-1,0.8C222.3,311,221.9,311.2,221.4,311.2z M220,307.7c0,0.2,0,0.5,0.1,0.7
					c0.1,0.2,0.1,0.4,0.3,0.6c0.1,0.2,0.3,0.3,0.4,0.4c0.1,0.1,0.4,0.2,0.6,0.2s0.4-0.1,0.6-0.2c0.2-0.1,0.3-0.2,0.4-0.4
					c0.1-0.2,0.2-0.4,0.2-0.6c0.1-0.2,0.1-0.4,0.1-0.7c0-0.2,0-0.5-0.1-0.7c-0.1-0.2-0.1-0.4-0.3-0.6c-0.1-0.2-0.3-0.3-0.4-0.4
					c-0.1-0.1-0.4-0.2-0.6-0.2c-0.2,0-0.4,0.1-0.6,0.2c-0.2,0.1-0.3,0.2-0.4,0.4c-0.1,0.2-0.2,0.4-0.3,0.6
					C220.1,307.2,220,307.5,220,307.7z"/>
				<path class="st1" d="M225.8,308h-0.6v-1.4h0.6v-0.2c0-0.3,0-0.6,0.1-0.9c0.1-0.3,0.2-0.5,0.4-0.7c0.2-0.2,0.4-0.3,0.6-0.4
					s0.5-0.2,0.8-0.2c0.4,0,0.9,0.1,1.4,0.3c0.2-0.2,0.5-0.3,0.8-0.5c0.3-0.1,0.7-0.2,1-0.2c0.3,0,0.7,0.1,1.1,0.2
					c0.4,0.1,0.8,0.3,1.2,0.6l-0.7,1.4c-0.2-0.2-0.4-0.3-0.7-0.5c-0.3-0.1-0.5-0.2-0.7-0.2c-0.4,0-0.7,0.2-0.7,0.5v0.6h2.9v4.5h-1.9
					v-3.1h-1.1v3.1h-1.8v-3.1h-1v3.1h-1.8L225.8,308L225.8,308L225.8,308z M228.6,306.7V306c-0.1,0-0.2,0-0.3-0.1
					c-0.1,0-0.2,0-0.2,0c-0.3,0-0.4,0.2-0.4,0.5v0.3H228.6z"/>
				<path class="st1" d="M234,308.5c0-0.3,0.1-0.7,0.2-1c0.1-0.3,0.3-0.6,0.5-0.8c0.2-0.2,0.5-0.4,0.9-0.6c0.3-0.1,0.8-0.2,1.2-0.2
					c0.6,0,1.1,0.1,1.6,0.4c0.4,0.3,0.7,0.6,0.9,1l-1.8,0.5c-0.2-0.3-0.4-0.4-0.7-0.4c-0.3,0-0.5,0.1-0.6,0.3
					c-0.2,0.2-0.3,0.5-0.3,0.8c0,0.3,0.1,0.6,0.3,0.8c0.2,0.2,0.4,0.3,0.6,0.3c0.3,0,0.5-0.1,0.7-0.4l1.8,0.5
					c-0.2,0.4-0.5,0.7-0.9,1c-0.4,0.3-0.9,0.4-1.6,0.4c-0.5,0-0.9-0.1-1.2-0.2c-0.3-0.1-0.6-0.3-0.9-0.6c-0.2-0.2-0.4-0.5-0.5-0.8
					C234.1,309.2,234,309,234,308.5z"/>
				<path class="st1" d="M242.4,311.2c-0.4,0-0.8-0.1-1.2-0.2c-0.3-0.1-0.6-0.3-0.9-0.6c-0.2-0.2-0.4-0.5-0.5-0.8
					c-0.1-0.3-0.2-0.6-0.2-1s0.1-0.7,0.2-1c0.1-0.3,0.3-0.6,0.5-0.9c0.2-0.2,0.5-0.4,0.9-0.6c0.3-0.1,0.7-0.2,1.2-0.2
					s0.9,0.1,1.2,0.2c0.3,0.1,0.6,0.3,0.9,0.6c0.2,0.2,0.4,0.5,0.5,0.8c0.1,0.3,0.2,0.7,0.2,1c0,0.1,0,0.2,0,0.3s0,0.2,0,0.3h-3.6
					c0,0.3,0.1,0.5,0.3,0.6c0.2,0.1,0.4,0.2,0.6,0.2s0.4,0,0.6-0.1s0.3-0.2,0.4-0.4l1.6,0.4c-0.2,0.4-0.5,0.7-1,1
					C243.5,311,243,311.2,242.4,311.2z M243.2,308c0-0.2-0.1-0.4-0.3-0.6c-0.2-0.2-0.3-0.2-0.6-0.2c-0.2,0-0.4,0.1-0.6,0.2
					c-0.1,0.1-0.2,0.3-0.3,0.6H243.2z"/>
			</g>
		</g>
		<g>
			<g>
				<path class="st2" d="M146.2,307.2c0-5.5,4.4-9.9,9.9-9.9s9.9,4.4,9.9,9.9s-4.4,9.9-9.9,9.9S146.2,312.5,146.2,307.2"/>
			</g>
			<g>
				<path class="st1" d="M158.5,311c-0.8,0-1.5,0.7-1.5,1.5c0,0.8,0.7,1.5,1.5,1.5c0.8,0,1.5-0.7,1.5-1.5
					C160,311.7,159.3,311,158.5,311L158.5,311z"/>
				<g>
					<g>
						<g>
							<defs>
								<rect id="SVGID_2_" x="149.7" y="302.2" width="11.8" height="11.8"/>
							</defs>
							<clipPath id="SVGID_3_">
								<use xlink:href="#SVGID_2_"  style="overflow:visible;"/>
							</clipPath>
							<path class="st3" d="M154.8,311c-0.8,0-1.5,0.7-1.5,1.5c0,0.8,0.7,1.5,1.5,1.5s1.5-0.7,1.5-1.5
								C156.3,311.7,155.6,311,154.8,311L154.8,311z"/>
						</g>
					</g>
					<g>
						<g>
							<defs>
								<rect id="SVGID_1_" x="149.7" y="302.2" width="11.8" height="11.8"/>
							</defs>
							<clipPath id="SVGID_4_">
								<use xlink:href="#SVGID_1_"  style="overflow:visible;"/>
							</clipPath>
							<path class="st4" d="M161.3,304.7c-0.1-0.2-0.4-0.3-0.6-0.3h-7.6l-0.6-1.7c-0.1-0.3-0.4-0.5-0.7-0.5h-1.5
								c-0.4,0-0.7,0.3-0.7,0.7s0.3,0.7,0.7,0.7h0.9l2,6.1c0.1,0.3,0.4,0.5,0.7,0.5h5.2c0.3,0,0.6-0.2,0.7-0.5l1.5-4.4
								C161.5,305.2,161.4,305,161.3,304.7L161.3,304.7z"/>
						</g>
					</g>
				</g>
			</g>
		</g>
	</g>
</g>
</svg>
